# xmcd
#
# Track frame offsets: 
#        150
#        17978
#        37787
#        66933
#        87179
#        105199
#        131890
#        151021
#        173542
#        192799
#        213400
#        236377
#        252098
#        267378
#        283347
#
# Disc length: 4154 seconds
#
# Revision: 0
# Processed by: cddbd v1.5.2PL0 Copyright (c) Steve Scherf et al.
# Submitted via: ExactAudioCopyFreeDBPlugin 1.0
#
DISCID=c310380f
DTITLE=Sandra Feva - Savoir Faire Plus:  The Soul of Venture
DYEAR=1981
DGENRE=Soul
TTITLE0=Tell 'Em That I Heard It
TTITLE1=Butterfly
TTITLE2=Leaving This Time
TTITLE3=Living with Someone
TTITLE4=Fade Away
TTITLE5=Let the Roses Die
TTITLE6=Who's Making Love
TTITLE7=Here, Now
TTITLE8=Betcha
TTITLE9=You Won My Heart
TTITLE10=Just to Be Close to You
TTITLE11=Choking Kind
TTITLE12=If You Want it You Got It
TTITLE13=Expressway to Your Heart
TTITLE14=Love to Be Your Woman
EXTD=
EXTT0=
EXTT1=
EXTT2=
EXTT3=
EXTT4=
EXTT5=
EXTT6=
EXTT7=
EXTT8=
EXTT9=
EXTT10=
EXTT11=
EXTT12=
EXTT13=
EXTT14=
PLAYORDER=
